<?xml version="1.0" encoding="UTF-8"?>
<svg xmlns="http://www.w3.org/2000/svg" xmlns:xlink="http://www.w3.org/1999/xlink" width="792pt" height="612pt" viewBox="0 0 792 612" version="1.1">
<g id="surface1">
<path style=" stroke:none;fill-rule:evenodd;fill:rgb(99.198914%,83.898926%,21.998596%);fill-opacity:1;" d="M 633.957031 239.953125 C 631.523438 249.039063 629.589844 258.230469 627.414063 267.363281 C 626.265625 272.195313 624.570313 276.96875 624.117188 281.859375 C 623.5625 287.8125 621.726563 293.53125 620.214844 299.097656 C 618.613281 304.96875 617.554688 311.023438 615.863281 316.894531 C 614.246094 322.5 612.335938 328.28125 612.429688 334.328125 C 615.597656 335.351563 618.992188 335.238281 622.144531 336.609375 C 624.15625 337.488281 625.339844 338.941406 625.328125 340.652344 C 625.316406 342.449219 624.792969 344.785156 622.6875 345.507813 C 620.378906 346.300781 618.105469 347.371094 615.460938 347.0625 C 612.984375 346.769531 610.464844 346.949219 608.28125 348.476563 C 607.820313 351.980469 607.046875 355.402344 606.074219 358.8125 C 604.863281 363.074219 604.035156 367.449219 602.984375 371.761719 C 601.578125 377.527344 600.585938 383.433594 597.28125 388.570313 C 596.554688 389.703125 595.695313 390.523438 594.53125 391.226563 C 587.457031 395.484375 579.515625 397.847656 572.136719 401.445313 C 570.851563 402.070313 543.734375 412.148438 511.972656 417.8125 C 487.972656 422.09375 453.226563 428.441406 412.992188 430.074219 C 368.917969 431.863281 319.191406 428.601563 292.402344 425.40625 C 252.335938 420.625 213.335938 410.601563 212.164063 410.171875 C 207.988281 408.664063 203.605469 408.019531 199.484375 406.375 C 192.886719 403.746094 185.941406 401.875 179.480469 399.082031 C 172.777344 396.1875 165.136719 394.367188 160.257813 388.230469 C 158.625 386.179688 157.332031 383.585938 156.722656 381.039063 C 155.023438 373.910156 153.261719 366.789063 151.617188 359.660156 C 150.753906 355.921875 149.546875 352.21875 148.953125 348.394531 C 147.390625 346.574219 145.132813 347.09375 143.164063 346.769531 C 141.675781 346.519531 140.125 346.695313 138.605469 346.628906 C 134.621094 346.457031 132.296875 344.285156 132.382813 340.855469 C 132.421875 339.050781 136.636719 335.476563 138.894531 335.265625 C 140.925781 335.074219 143.054688 335.59375 144.925781 334.367188 C 144.316406 324.792969 141.488281 315.6875 139.261719 306.429688 C 138.0625 301.429688 137.222656 296.285156 135.839844 291.335938 C 133.371094 282.507813 131.972656 273.453125 129.574219 264.601563 C 127.953125 258.597656 126.71875 252.414063 125.261719 246.328125 C 124.296875 242.304688 123.542969 238.3125 123.371094 234.183594 C 123.175781 229.457031 125.257813 226.035156 128.792969 223.027344 C 135.367188 217.4375 143.144531 213.910156 150.519531 209.683594 C 153.445313 208.007813 194.3125 190.203125 234.882813 180.429688 C 248.734375 177.09375 276.058594 170.710938 309.921875 167.582031 C 349.019531 163.976563 395.679688 163.941406 421.460938 165.539063 C 467.792969 168.410156 511.582031 176.792969 522.777344 179.554688 C 531.714844 181.761719 551.691406 186.972656 569.492188 193.277344 C 585.277344 198.871094 599.4375 205.691406 601.355469 206.644531 C 607.066406 209.476563 612.628906 212.613281 618.160156 215.777344 C 622.507813 218.261719 626.8125 221.046875 630.53125 224.558594 C 635.171875 228.9375 635.402344 234.53125 633.957031 239.953125 Z M 647.796875 218.785156 C 644.898438 216.304688 642.039063 213.789063 638.886719 211.640625 C 627.847656 204.109375 615.714844 198.855469 603.21875 194.25 C 587.703125 188.527344 572.046875 183.261719 556.179688 178.636719 C 541.03125 174.21875 525.757813 170.335938 510.304688 167.085938 C 498.796875 164.667969 487.226563 162.652344 475.589844 161.128906 C 459.738281 159.046875 443.855469 157.253906 427.878906 156.191406 C 409.183594 154.949219 390.515625 153.460938 371.765625 153.722656 C 352.578125 153.625 333.457031 154.632813 314.335938 156.222656 C 303.371094 157.132813 292.457031 158.363281 281.578125 159.859375 C 270.054688 161.445313 258.605469 163.484375 247.222656 165.953125 C 233.707031 168.878906 220.335938 172.34375 207.132813 176.367188 C 186.839844 182.558594 166.863281 189.6875 147.328125 197.980469 C 137.429688 202.1875 127.144531 205.652344 118.128906 211.695313 C 102.484375 222.183594 99.210938 231.496094 102.171875 248.128906 C 105.078125 264.457031 110.5 280.332031 114.796875 296.410156 C 118.726563 311.117188 122.636719 325.828125 126.546875 340.542969 C 129.757813 352.632813 132.679688 364.804688 136.238281 376.789063 C 139.714844 388.492188 146.628906 397.796875 158.417969 402.164063 C 183.921875 411.621094 209.808594 419.832031 236.414063 425.738281 C 255.789063 430.039063 275.398438 432.6875 295.066406 434.949219 C 312.695313 436.980469 330.417969 438.167969 348.144531 438.796875 C 371.320313 439.617188 394.527344 439.730469 417.722656 438.535156 C 440.015625 437.386719 462.253906 435.796875 484.347656 432.515625 C 497.808594 430.511719 511.15625 427.886719 524.4375 424.945313 C 538.242188 421.886719 551.996094 418.53125 565.519531 414.378906 C 578.273438 410.46875 591.480469 407.914063 603.316406 401.210938 C 612.160156 396.199219 618.214844 388.925781 620.703125 379.34375 C 626.984375 355.136719 632.675781 330.777344 638.625 306.480469 C 643.898438 284.941406 649.84375 263.554688 654.117188 241.777344 C 655.777344 233.296875 655.128906 225.070313 647.796875 218.785156 "/>
<path style=" stroke:none;fill-rule:evenodd;fill:rgb(92.89856%,10.998535%,14.099121%);fill-opacity:1;" d="M 633.757813 240.121094 C 631.324219 249.207031 629.390625 258.398438 627.214844 267.535156 C 626.066406 272.359375 624.371094 277.136719 623.917969 282.027344 C 623.363281 287.984375 621.527344 293.699219 620.015625 299.265625 C 618.414063 305.136719 617.355469 311.191406 615.664063 317.0625 C 614.050781 322.667969 612.140625 328.453125 612.230469 334.496094 C 615.398438 335.519531 618.796875 335.410156 621.945313 336.78125 C 623.960938 337.65625 625.140625 339.113281 625.128906 340.824219 C 625.117188 342.613281 624.59375 344.953125 622.488281 345.675781 C 620.179688 346.464844 617.90625 347.539063 615.261719 347.230469 C 612.785156 346.9375 610.265625 347.117188 608.082031 348.644531 C 607.621094 352.148438 606.847656 355.570313 605.875 358.980469 C 604.664063 363.246094 603.835938 367.617188 602.785156 371.933594 C 601.382813 377.699219 600.386719 383.605469 597.082031 388.738281 C 596.355469 389.871094 595.496094 390.691406 594.332031 391.394531 C 587.261719 395.65625 579.316406 398.015625 571.9375 401.617188 C 570.652344 402.238281 543.53125 412.316406 511.773438 417.980469 C 487.773438 422.265625 453.027344 428.613281 412.792969 430.246094 C 368.71875 432.035156 318.992188 428.769531 292.203125 425.574219 C 252.140625 420.796875 213.140625 410.769531 211.964844 410.34375 C 207.785156 408.832031 203.40625 408.1875 199.28125 406.542969 C 192.6875 403.917969 185.746094 402.042969 179.28125 399.253906 C 172.578125 396.355469 164.9375 394.535156 160.058594 388.398438 C 158.429688 386.347656 157.132813 383.753906 156.523438 381.210938 C 154.820313 374.074219 153.066406 366.957031 151.417969 359.828125 C 150.550781 356.089844 149.347656 352.386719 148.753906 348.5625 C 147.191406 346.742188 144.9375 347.261719 142.960938 346.9375 C 141.480469 346.691406 139.929688 346.863281 138.410156 346.800781 C 134.421875 346.625 132.09375 344.457031 132.179688 341.023438 C 132.226563 339.21875 136.4375 335.644531 138.699219 335.433594 C 140.722656 335.242188 142.855469 335.761719 144.726563 334.539063 C 144.117188 324.960938 141.289063 315.855469 139.0625 306.597656 C 137.863281 301.597656 137.027344 296.449219 135.644531 291.503906 C 133.175781 282.675781 131.777344 273.621094 129.378906 264.769531 C 127.753906 258.765625 126.519531 252.578125 125.066406 246.496094 C 124.097656 242.472656 123.34375 238.480469 123.171875 234.351563 C 122.980469 229.625 125.058594 226.203125 128.59375 223.195313 C 135.164063 217.605469 142.941406 214.078125 150.320313 209.855469 C 153.246094 208.175781 194.113281 190.371094 234.683594 180.601563 C 248.535156 177.261719 275.859375 170.878906 309.722656 167.753906 C 348.820313 164.140625 395.480469 164.109375 421.261719 165.707031 C 467.59375 168.574219 511.382813 176.960938 522.578125 179.722656 C 531.515625 181.929688 551.492188 187.140625 569.296875 193.445313 C 585.078125 199.039063 599.238281 205.863281 601.15625 206.8125 C 606.871094 209.644531 612.429688 212.78125 617.960938 215.945313 C 622.308594 218.429688 626.609375 221.214844 630.332031 224.726563 C 634.976563 229.105469 635.203125 234.703125 633.757813 240.121094 "/>
<path style=" stroke:none;fill-rule:evenodd;fill:rgb(100%,100%,100%);fill-opacity:1;" d="M 622.144531 336.609375 C 618.992188 335.238281 615.597656 335.351563 612.429688 334.328125 C 599.394531 334.671875 586.40625 334.96875 573.40625 336.8125 C 551.386719 339.929688 529.789063 345.015625 508.050781 349.453125 C 497.183594 351.671875 486.445313 354.507813 475.574219 356.738281 C 458.738281 360.191406 441.875 363.464844 424.824219 365.835938 C 409.050781 368.03125 393.242188 369.761719 377.34375 369.675781 C 362.21875 369.59375 347.195313 367.730469 332.175781 365.753906 C 318.667969 363.96875 305.355469 361.265625 292.007813 358.742188 C 278.4375 356.179688 265.019531 352.835938 251.515625 349.917969 C 237.808594 346.960938 224.09375 344.058594 210.363281 341.222656 C 198.214844 338.714844 185.957031 336.886719 173.632813 335.480469 C 164.09375 334.394531 154.507813 334.417969 144.925781 334.367188 C 143.054688 335.59375 140.925781 335.074219 138.894531 335.265625 C 136.636719 335.476563 132.421875 339.050781 132.382813 340.855469 C 132.296875 344.285156 134.621094 346.457031 138.605469 346.628906 C 140.125 346.695313 141.675781 346.519531 143.164063 346.769531 C 145.132813 347.09375 147.390625 346.574219 148.945313 348.394531 C 157.933594 348.566406 166.667969 350.480469 175.394531 352.328125 C 185.390625 354.445313 195.339844 356.785156 205.25 359.300781 C 213.898438 361.492188 222.4375 364.074219 231.074219 366.304688 C 242.226563 369.179688 253.167969 372.886719 264.320313 375.773438 C 281.164063 380.132813 297.957031 384.6875 315.011719 388.210938 C 329.414063 391.1875 343.902344 393.585938 358.527344 394.941406 C 381.347656 397.0625 403.96875 395.1875 426.5 391.253906 C 443.667969 388.257813 460.617188 384.382813 477.425781 379.878906 C 493.289063 375.628906 509.078125 371.109375 524.90625 366.730469 C 533.300781 364.40625 541.65625 361.957031 550.109375 359.890625 C 559.398438 357.625 568.597656 354.992188 578.007813 353.195313 C 588.050781 351.269531 597.984375 348.734375 608.28125 348.476563 C 610.464844 346.949219 612.984375 346.769531 615.460938 347.0625 C 618.105469 347.371094 620.378906 346.300781 622.6875 345.507813 C 624.792969 344.785156 625.316406 342.449219 625.328125 340.652344 C 625.339844 338.941406 624.15625 337.488281 622.144531 336.609375 "/>
<path style=" stroke:none;fill-rule:evenodd;fill:rgb(100%,100%,100%);fill-opacity:1;" d="M 226.722656 310.574219 C 232.480469 310.316406 238.269531 310.644531 244.027344 310.390625 C 251.082031 310.078125 257.199219 307.425781 261.597656 301.71875 C 265.160156 297.105469 265.859375 291.570313 265.871094 285.9375 C 265.894531 276.679688 265.835938 267.421875 265.835938 258.164063 C 265.835938 252.722656 265.859375 247.277344 265.929688 241.835938 C 265.960938 239.378906 264.984375 238.226563 262.40625 238.378906 C 259.910156 238.527344 257.394531 238.4375 254.894531 238.433594 C 253.066406 238.425781 252.09375 239.109375 252.101563 241.136719 C 252.125 253.875 252.027344 266.613281 252.082031 279.351563 C 252.101563 283.0625 252.015625 286.773438 251.304688 290.398438 C 250.347656 295.28125 247.8125 299.007813 242.714844 300.496094 C 237.574219 302 236.507813 301.257813 236.460938 295.996094 C 236.453125 295.234375 236.472656 294.46875 236.476563 293.707031 C 236.503906 276.394531 236.488281 259.074219 236.597656 241.761719 C 236.613281 239.171875 235.683594 238.207031 233.15625 238.363281 C 230.984375 238.5 228.789063 238.550781 226.625 238.367188 C 223.800781 238.125 222.738281 239.171875 222.769531 242.050781 C 222.878906 252.828125 222.8125 263.605469 222.8125 274.386719 C 222.753906 274.386719 222.695313 274.386719 222.640625 274.386719 C 222.640625 285.058594 222.699219 295.730469 222.601563 306.398438 C 222.574219 309.398438 223.460938 310.71875 226.722656 310.574219 "/>
<path style=" stroke:none;fill-rule:evenodd;fill:rgb(100%,100%,100%);fill-opacity:1;" d="M 375.621094 311.59375 C 377.445313 312.503906 379.195313 311.902344 380.789063 310.703125 C 384.152344 308.179688 385.617188 304.652344 386.222656 300.664063 C 387.203125 294.167969 386.882813 287.617188 386.96875 281.085938 C 387.023438 276.972656 387.019531 276.988281 391.25 277.066406 C 393.972656 277.113281 396.714844 277.269531 399.417969 277.046875 C 402.605469 276.78125 403.546875 278.003906 403.484375 281.136719 C 403.316406 289.851563 403.410156 298.570313 403.496094 307.285156 C 403.535156 311.503906 406.714844 313.222656 410.421875 311.128906 C 411.863281 310.3125 412.945313 309.195313 413.789063 307.691406 C 416.328125 303.167969 417.109375 298.261719 417.136719 293.210938 C 417.214844 278.28125 417.1875 263.355469 417.199219 248.425781 C 417.207031 238.371094 417.203125 238.429688 407.128906 238.503906 C 404.511719 238.523438 403.433594 239.382813 403.476563 242.128906 C 403.585938 249.210938 403.316406 256.296875 403.480469 263.371094 C 403.554688 266.605469 402.367188 267.617188 399.269531 267.351563 C 396.457031 267.109375 393.597656 267.121094 390.777344 267.316406 C 387.992188 267.507813 386.804688 266.632813 386.910156 263.679688 C 387.113281 257.914063 387.113281 252.132813 387.070313 246.355469 C 387.011719 238.324219 388.109375 238.300781 379.394531 238.667969 C 378.628906 238.695313 377.863281 238.71875 377.105469 238.671875 C 374.339844 238.488281 373.296875 239.691406 373.324219 242.515625 C 373.441406 253.1875 373.371094 263.867188 373.371094 274.546875 L 373.351563 274.546875 C 373.351563 285.335938 373.382813 296.125 373.324219 306.910156 C 373.3125 308.945313 373.789063 310.675781 375.621094 311.59375 "/>
<path style=" stroke:none;fill-rule:evenodd;fill:rgb(100%,100%,100%);fill-opacity:1;" d="M 455.800781 311.894531 C 461.449219 311.660156 466.554688 309.929688 469.089844 304.117188 C 469.738281 302.628906 469.882813 301.101563 468.59375 299.886719 C 467.386719 298.746094 465.855469 298.8125 464.699219 299.800781 C 459.269531 304.429688 451.074219 301.277344 446.898438 297.457031 C 441.691406 292.695313 439.289063 286.472656 437.480469 279.898438 C 436.957031 278.003906 437.628906 277.246094 439.527344 277.269531 C 442.574219 277.3125 445.628906 277.277344 448.671875 277.277344 C 448.671875 277.289063 448.671875 277.300781 448.671875 277.308594 C 450.523438 277.308594 452.378906 277.28125 454.230469 277.3125 C 460.433594 277.410156 460.324219 277.417969 460.261719 271.121094 C 460.234375 268.5 459.210938 267.730469 456.738281 267.777344 C 451.1875 267.878906 445.628906 267.726563 440.074219 267.765625 C 437.949219 267.78125 437.164063 267.28125 437.714844 264.894531 C 438.808594 260.152344 440.578125 255.792969 443.464844 251.863281 C 447.183594 246.796875 452.746094 245.675781 458.070313 248.890625 C 461.304688 250.839844 463.8125 253.472656 466.007813 256.503906 C 467.691406 258.832031 470.402344 258.816406 471.5625 256.605469 C 473.265625 253.355469 472.167969 246.660156 469.515625 244.070313 C 463.382813 238.089844 451.347656 236.3125 443.566406 240.132813 C 436.6875 243.511719 431.742188 248.65625 428.066406 255.402344 C 419.765625 270.640625 422.683594 291.753906 435.183594 303.628906 C 440.917969 309.078125 447.789063 312.222656 455.800781 311.894531 "/>
<path style=" stroke:none;fill-rule:evenodd;fill:rgb(100%,100%,100%);fill-opacity:1;" d="M 309.558594 310.472656 C 313.191406 309.464844 315.488281 306.894531 317.136719 303.746094 C 317.832031 302.417969 317.984375 300.6875 316.660156 299.496094 C 315.359375 298.324219 313.714844 298.410156 312.4375 299.457031 C 307.777344 303.269531 302.984375 302.304688 298.460938 299.589844 C 288.324219 293.511719 285.8125 283.359375 284.648438 274.695313 C 284.667969 266.449219 286.828125 258.5 289.90625 253.269531 C 293.886719 246.492188 300.1875 245.007813 306.863281 249.058594 C 309.953125 250.929688 311.980469 253.714844 314.199219 256.386719 C 316.125 258.695313 319.289063 258.359375 319.746094 255.703125 C 320.792969 249.621094 320.273438 245.082031 314.945313 241.621094 C 305.164063 235.269531 291.445313 236.804688 282.664063 245.863281 C 269.859375 259.066406 267.523438 279.027344 276.613281 295.152344 C 283.636719 307.617188 297.175781 313.902344 309.558594 310.472656 "/>
<path style=" stroke:none;fill-rule:evenodd;fill:rgb(100%,100%,100%);fill-opacity:1;" d="M 319.738281 278.703125 C 320.355469 293.167969 331.480469 309.996094 349.15625 311.621094 C 355.765625 312.230469 362.183594 309.671875 364.914063 304.617188 C 365.804688 302.976563 366.164063 301.203125 364.769531 299.773438 C 363.4375 298.402344 361.726563 298.675781 360.304688 299.773438 C 356.074219 303.046875 351.796875 302.265625 347.417969 300.144531 C 341.207031 297.128906 337.78125 291.765625 335.492188 285.632813 C 331.054688 273.726563 332.078125 262.285156 339.402344 251.75 C 343.15625 246.34375 348.589844 245.511719 354.300781 248.722656 C 357.546875 250.546875 359.816406 253.257813 362.050781 256.078125 C 362.953125 257.210938 363.972656 258.3125 365.59375 257.9375 C 367.175781 257.570313 367.96875 256.078125 368.140625 254.796875 C 368.671875 250.863281 368.542969 246.96875 365.566406 243.792969 C 358.523438 236.277344 343.105469 236.371094 334.757813 242.707031 C 324.097656 250.792969 319.679688 261.734375 319.734375 274.78125 C 319.734375 276.089844 319.6875 277.398438 319.738281 278.703125 "/>
<path style=" stroke:none;fill-rule:evenodd;fill:rgb(100%,100%,100%);fill-opacity:1;" d="M 519.691406 248.230469 C 521.105469 248.257813 522.535156 248.375 523.9375 248.234375 C 526.765625 247.953125 527.792969 249.082031 527.75 251.953125 C 527.621094 261.097656 527.703125 270.242188 527.703125 279.386719 C 527.640625 279.386719 527.582031 279.386719 527.523438 279.386719 C 527.523438 288.855469 527.410156 298.324219 527.574219 307.785156 C 527.648438 312.324219 530.929688 313.855469 534.738281 311.429688 C 536.035156 310.597656 537.089844 309.578125 537.902344 308.210938 C 540.882813 303.214844 541.140625 297.667969 541.191406 292.117188 C 541.296875 279.925781 541.179688 267.730469 541.335938 255.542969 C 541.429688 248.484375 541.589844 248.488281 548.652344 248.257813 C 552.164063 248.140625 552.339844 247.734375 552.464844 243.085938 C 552.539063 240.1875 551.867188 238.71875 548.511719 238.769531 C 539.15625 238.90625 529.796875 238.710938 520.4375 238.679688 C 515.523438 238.667969 515.265625 238.960938 515.371094 243.839844 C 515.457031 247.734375 515.871094 248.160156 519.691406 248.230469 "/>
<path style=" stroke:none;fill-rule:evenodd;fill:rgb(100%,100%,100%);fill-opacity:1;" d="M 190.65625 310.554688 C 198.382813 310.394531 206.113281 310.546875 213.839844 310.515625 C 217.503906 310.503906 218.347656 309.316406 217.113281 305.914063 C 216.472656 304.167969 215.484375 302.699219 213.714844 301.722656 C 210.972656 300.210938 208.113281 299.429688 205 299.378906 C 200.601563 299.304688 200.566406 299.257813 200.570313 294.855469 C 200.578125 277.332031 200.554688 259.808594 200.699219 242.285156 C 200.726563 239.285156 199.730469 238.066406 196.761719 238.269531 C 194.703125 238.414063 192.617188 238.46875 190.5625 238.328125 C 187.695313 238.136719 186.765625 239.347656 186.796875 242.160156 C 186.910156 252.820313 186.839844 263.484375 186.839844 274.148438 C 186.828125 274.148438 186.8125 274.148438 186.800781 274.148438 C 186.800781 284.921875 186.855469 295.691406 186.765625 306.464844 C 186.742188 309.296875 187.535156 310.617188 190.65625 310.554688 "/>
<path style=" stroke:none;fill-rule:evenodd;fill:rgb(100%,100%,100%);fill-opacity:1;" d="M 478.3125 248.078125 C 479.074219 248.066406 479.851563 248.132813 480.597656 248.019531 C 483.582031 247.566406 484.664063 248.761719 484.617188 251.800781 C 484.476563 261.0625 484.5625 270.328125 484.5625 279.59375 C 484.535156 279.59375 484.503906 279.59375 484.476563 279.59375 C 484.476563 288.964844 484.417969 298.339844 484.5 307.710938 C 484.535156 311.902344 487.789063 313.609375 491.453125 311.5 C 493.71875 310.195313 495.125 308.234375 496.058594 305.789063 C 497.917969 300.898438 498.261719 295.816406 498.273438 290.679688 C 498.3125 277.707031 498.382813 264.738281 498.292969 251.769531 C 498.269531 248.902344 499.261719 247.722656 502.09375 248.058594 C 502.847656 248.144531 503.621094 248.066406 504.382813 248.070313 C 509.648438 248.078125 509.648438 248.078125 509.601563 242.917969 C 509.601563 242.59375 509.574219 242.261719 509.59375 241.9375 C 509.746094 239.601563 508.796875 238.703125 506.335938 238.714844 C 496.53125 238.769531 486.726563 238.691406 476.925781 238.523438 C 474.078125 238.480469 472.777344 239.398438 472.722656 242.417969 C 472.621094 247.785156 472.839844 248.140625 478.3125 248.078125 "/>
<path style=" stroke:none;fill-rule:evenodd;fill:rgb(100%,100%,100%);fill-opacity:1;" d="M 556.933594 274.589844 C 556.933594 276.65625 556.925781 278.726563 556.933594 280.792969 C 556.957031 289.824219 556.890625 298.859375 557.058594 307.886719 C 557.140625 312.429688 560.714844 314.085938 564.503906 311.558594 C 565.601563 310.824219 566.46875 309.890625 567.167969 308.742188 C 569.730469 304.515625 570.753906 299.777344 570.816406 295.007813 C 571.0625 277.273438 570.996094 259.539063 571.085938 241.804688 C 571.097656 239.742188 570.253906 238.796875 568.183594 238.816406 C 565.789063 238.84375 563.386719 238.921875 561.007813 238.71875 C 558.03125 238.464844 556.964844 239.570313 557.003906 242.605469 C 557.140625 253.265625 557.058594 263.929688 557.058594 274.589844 C 557.015625 274.589844 556.972656 274.589844 556.933594 274.589844 "/>
</g>
</svg>
