<?xml version="1.0" encoding="UTF-8"?>
<svg xmlns="http://www.w3.org/2000/svg" xmlns:xlink="http://www.w3.org/1999/xlink" width="169.98pt" height="51.42pt" viewBox="0 0 169.98 51.42" version="1.1">
<defs>
<clipPath id="clip1">
  <path d="M 14 34 L 33 34 L 33 51.421875 L 14 51.421875 Z M 14 34 "/>
</clipPath>
<clipPath id="clip2">
  <path d="M 34 24 L 54 24 L 54 51.421875 L 34 51.421875 Z M 34 24 "/>
</clipPath>
<clipPath id="clip3">
  <path d="M 54 34 L 73 34 L 73 51.421875 L 54 51.421875 Z M 54 34 "/>
</clipPath>
<clipPath id="clip4">
  <path d="M 73 34 L 88 34 L 88 51.421875 L 73 51.421875 Z M 73 34 "/>
</clipPath>
<clipPath id="clip5">
  <path d="M 118 34 L 138 34 L 138 51.421875 L 118 51.421875 Z M 118 34 "/>
</clipPath>
<clipPath id="clip6">
  <path d="M 157 8 L 169.980469 8 L 169.980469 25 L 157 25 Z M 157 8 "/>
</clipPath>
</defs>
<g id="surface1">
<path style=" stroke:none;fill-rule:nonzero;fill:rgb(0%,44.699097%,73.699951%);fill-opacity:1;" d="M 6.1875 45.644531 L 13.605469 45.644531 L 13.605469 50.886719 L 0 50.886719 L 0 27.082031 L 6.1875 27.082031 L 6.1875 45.644531 "/>
<g clip-path="url(#clip1)" clip-rule="nonzero">
<path style=" stroke:none;fill-rule:nonzero;fill:rgb(0%,44.699097%,73.699951%);fill-opacity:1;" d="M 27.195313 40.433594 C 26.910156 38.886719 25.492188 37.878906 23.945313 37.878906 C 22.269531 37.878906 20.882813 38.761719 20.535156 40.433594 Z M 32.53125 43.75 L 20.441406 43.75 C 20.441406 46.085938 21.671875 47.347656 24.039063 47.347656 C 25.269531 47.347656 26.15625 46.9375 26.785156 45.867188 L 32.308594 45.867188 C 31.394531 49.683594 27.765625 51.421875 24.070313 51.421875 C 18.703125 51.421875 14.695313 48.390625 14.695313 42.804688 C 14.695313 37.402344 18.386719 34.152344 23.660156 34.152344 C 29.28125 34.152344 32.53125 37.625 32.53125 43.148438 L 32.53125 43.75 "/>
</g>
<g clip-path="url(#clip2)" clip-rule="nonzero">
<path style=" stroke:none;fill-rule:nonzero;fill:rgb(0%,44.699097%,73.699951%);fill-opacity:1;" d="M 40.109375 42.804688 C 40.109375 44.855469 41.464844 46.433594 43.800781 46.433594 C 46.136719 46.433594 47.496094 44.855469 47.496094 42.804688 C 47.496094 40.8125 46.136719 39.140625 43.800781 39.140625 C 41.464844 39.140625 40.109375 40.8125 40.109375 42.804688 Z M 47.304688 49.085938 L 47.242188 49.085938 C 46.234375 50.695313 44.242188 51.421875 42.347656 51.421875 C 37.550781 51.421875 34.171875 47.414063 34.171875 42.773438 C 34.171875 38.128906 37.488281 34.152344 42.285156 34.152344 C 44.148438 34.152344 46.105469 34.847656 47.304688 36.265625 L 47.304688 24.683594 L 53.050781 24.683594 L 53.050781 50.886719 L 47.304688 50.886719 L 47.304688 49.085938 "/>
</g>
<g clip-path="url(#clip3)" clip-rule="nonzero">
<path style=" stroke:none;fill-rule:nonzero;fill:rgb(0%,44.699097%,73.699951%);fill-opacity:1;" d="M 67.351563 40.433594 C 67.066406 38.886719 65.644531 37.878906 64.097656 37.878906 C 62.425781 37.878906 61.035156 38.761719 60.691406 40.433594 Z M 72.6875 43.75 L 60.59375 43.75 C 60.59375 46.085938 61.828125 47.347656 64.195313 47.347656 C 65.425781 47.347656 66.308594 46.9375 66.941406 45.867188 L 72.464844 45.867188 C 71.550781 49.683594 67.917969 51.421875 64.226563 51.421875 C 58.859375 51.421875 54.847656 48.390625 54.847656 42.804688 C 54.847656 37.402344 58.542969 34.152344 63.816406 34.152344 C 69.433594 34.152344 72.6875 37.625 72.6875 43.148438 L 72.6875 43.75 "/>
</g>
<g clip-path="url(#clip4)" clip-rule="nonzero">
<path style=" stroke:none;fill-rule:nonzero;fill:rgb(0%,44.699097%,73.699951%);fill-opacity:1;" d="M 85.050781 38.855469 C 84.167969 38.382813 82.9375 38.066406 81.957031 38.066406 C 81.292969 38.066406 80.15625 38.351563 80.15625 39.171875 C 80.15625 40.277344 81.957031 40.433594 82.746094 40.59375 C 85.429688 41.128906 87.449219 42.394531 87.449219 45.390625 C 87.449219 49.652344 83.566406 51.421875 79.808594 51.421875 C 77.507813 51.421875 75.234375 50.757813 73.277344 49.558594 L 75.359375 45.550781 C 76.527344 46.371094 78.484375 47.191406 79.90625 47.191406 C 80.632813 47.191406 81.703125 46.84375 81.703125 45.960938 C 81.703125 44.699219 79.90625 44.632813 78.105469 44.160156 C 76.304688 43.6875 74.507813 42.804688 74.507813 39.898438 C 74.507813 35.921875 78.105469 34.152344 81.640625 34.152344 C 83.472656 34.152344 85.304688 34.4375 86.976563 35.195313 L 85.050781 38.855469 "/>
</g>
<path style=" stroke:none;fill-rule:nonzero;fill:rgb(0%,44.699097%,73.699951%);fill-opacity:1;" d="M 95.097656 36.710938 L 95.160156 36.710938 C 96.515625 34.910156 98.191406 34.152344 100.273438 34.152344 C 102.609375 34.152344 104.628906 35.097656 105.796875 37.246094 C 106.902344 35.226563 109.082031 34.152344 111.289063 34.152344 C 115.394531 34.152344 116.816406 36.835938 116.816406 40.558594 L 116.816406 50.886719 L 111.070313 50.886719 L 111.070313 43.148438 C 111.070313 41.476563 111.132813 38.730469 108.703125 38.730469 C 106.050781 38.730469 105.957031 41.222656 105.953125 43.148438 L 105.953125 50.886719 L 100.210938 50.886719 L 100.210938 43.148438 C 100.210938 41.351563 100.210938 38.601563 97.652344 38.601563 C 95.097656 38.601563 95.097656 41.351563 95.097656 43.148438 L 95.097656 50.886719 L 89.351563 50.886719 L 89.351563 34.6875 L 95.097656 34.6875 L 95.097656 36.710938 "/>
<g clip-path="url(#clip5)" clip-rule="nonzero">
<path style=" stroke:none;fill-rule:nonzero;fill:rgb(0%,44.699097%,73.699951%);fill-opacity:1;" d="M 124.574219 42.804688 C 124.574219 44.855469 125.929688 46.433594 128.265625 46.433594 C 130.601563 46.433594 131.960938 44.855469 131.960938 42.804688 C 131.960938 40.8125 130.601563 39.140625 128.265625 39.140625 C 125.929688 39.140625 124.574219 40.8125 124.574219 42.804688 Z M 137.515625 50.886719 L 131.769531 50.886719 L 131.769531 49.085938 L 131.707031 49.085938 C 130.699219 50.695313 128.710938 51.421875 126.8125 51.421875 C 122.015625 51.421875 118.636719 47.414063 118.636719 42.773438 C 118.636719 38.128906 121.953125 34.152344 126.753906 34.152344 C 128.613281 34.152344 130.570313 34.847656 131.769531 36.265625 L 131.769531 34.6875 L 137.515625 34.6875 L 137.515625 50.886719 "/>
</g>
<path style=" stroke:none;fill-rule:nonzero;fill:rgb(0%,68.199158%,93.699646%);fill-opacity:1;" d="M 72.796875 7.972656 L 72.734375 7.972656 L 70.175781 15.550781 L 75.324219 15.550781 Z M 68.472656 20.285156 L 66.832031 24.421875 L 60.265625 24.421875 L 69.417969 0.617188 L 76.175781 0.617188 L 85.140625 24.421875 L 78.542969 24.421875 L 76.996094 20.285156 L 68.472656 20.285156 "/>
<path style=" stroke:none;fill-rule:nonzero;fill:rgb(0%,68.199158%,93.699646%);fill-opacity:1;" d="M 101.242188 19.652344 L 101.238281 24.421875 L 84.824219 24.421875 L 92.433594 12.992188 L 85.835938 12.992188 L 85.835938 8.226563 L 101.996094 8.226563 L 94.421875 19.652344 L 101.242188 19.652344 "/>
<path style=" stroke:none;fill-rule:nonzero;fill:rgb(0%,68.199158%,93.699646%);fill-opacity:1;" d="M 112.214844 7.113281 L 109.65625 5.25 L 114.378906 0.00390625 L 117.613281 2.347656 L 112.214844 7.113281 "/>
<path style=" stroke:none;fill-rule:nonzero;fill:rgb(0%,68.199158%,93.699646%);fill-opacity:1;" d="M 142.976563 16.351563 C 142.976563 18.402344 144.335938 19.980469 146.671875 19.980469 C 149.003906 19.980469 150.363281 18.402344 150.363281 16.351563 C 150.363281 14.359375 149.003906 12.6875 146.671875 12.6875 C 144.335938 12.6875 142.976563 14.359375 142.976563 16.351563 Z M 155.921875 24.433594 L 150.171875 24.433594 L 150.171875 22.632813 L 150.109375 22.632813 C 149.101563 24.242188 147.113281 24.96875 145.21875 24.96875 C 140.417969 24.96875 137.039063 20.960938 137.039063 16.320313 C 137.039063 11.679688 140.355469 7.699219 145.15625 7.699219 C 147.015625 7.699219 148.972656 8.394531 150.171875 9.816406 L 150.171875 8.238281 L 155.921875 8.238281 L 155.921875 24.433594 "/>
<g clip-path="url(#clip6)" clip-rule="nonzero">
<path style=" stroke:none;fill-rule:nonzero;fill:rgb(0%,68.199158%,93.699646%);fill-opacity:1;" d="M 163.570313 10.890625 L 163.632813 10.890625 C 164.738281 8.898438 166.632813 8.015625 168.871094 8.015625 L 169.980469 8.015625 L 169.980469 13.539063 C 169.191406 13.097656 168.433594 13.003906 167.546875 13.003906 C 164.359375 13.003906 163.570313 15.121094 163.570313 17.898438 L 163.570313 24.433594 L 157.824219 24.433594 L 157.824219 8.238281 L 163.570313 8.238281 L 163.570313 10.890625 "/>
</g>
<path style=" stroke:none;fill-rule:nonzero;fill:rgb(0%,68.199158%,93.699646%);fill-opacity:1;" d="M 114.894531 22.351563 L 114.828125 22.351563 C 113.503906 24.308594 111.894531 24.972656 109.652344 24.972656 C 105.296875 24.972656 103.558594 22.226563 103.558594 18.246094 L 103.558594 8.238281 L 109.304688 8.238281 L 109.304688 16.132813 C 109.304688 17.679688 109.050781 20.394531 111.894531 20.394531 C 114.230469 20.394531 114.894531 18.65625 114.894531 16.636719 L 114.894531 8.238281 L 120.640625 8.238281 L 120.640625 24.433594 L 114.894531 24.433594 L 114.894531 22.351563 "/>
<path style=" stroke:none;fill-rule:nonzero;fill:rgb(0%,68.199158%,93.699646%);fill-opacity:1;" d="M 132.019531 19.914063 C 129.683594 19.914063 128.328125 18.34375 128.328125 16.304688 C 128.328125 14.324219 129.683594 12.660156 132.019531 12.660156 C 133.222656 12.660156 134.160156 13.105469 134.789063 13.800781 L 137.535156 9.054688 C 135.941406 8.167969 134.035156 7.699219 132.019531 7.699219 C 126.8125 7.699219 122.265625 10.808594 122.265625 16.304688 C 122.265625 21.796875 126.84375 24.875 132.019531 24.875 C 134.035156 24.875 135.945313 24.40625 137.535156 23.519531 L 134.804688 18.796875 C 134.171875 19.484375 133.230469 19.914063 132.019531 19.914063 "/>
</g>
</svg>
