<?xml version="1.0" encoding="utf-8"?>
<!-- Generator: Adobe Illustrator 22.0.1, SVG Export Plug-In . SVG Version: 6.00 Build 0)  -->
<svg version="1.1" id="Layer_1" xmlns="http://www.w3.org/2000/svg" xmlns:xlink="http://www.w3.org/1999/xlink" x="0px" y="0px"
	 viewBox="0 0 90 90" style="enable-background:new 0 0 90 90;" xml:space="preserve">
<style type="text/css">
	.st0{fill:#000F9F;}
	.st1{fill:#009EE2;}
	.st2{fill:#FFFFFF;}
</style>
<g>
	<g>
		<path class="st0" d="M73.5,24.2C73.5,13.9,60.7,5.6,45,5.6c-15.7,0-28.5,8.4-28.5,18.6c0,0.3,0,1,0,1.1C16.5,36.2,27.7,45,45,45
			c17.4,0,28.5-8.8,28.5-19.7C73.5,24.9,73.5,24.7,73.5,24.2z"/>
		<path class="st1" d="M72.4,24.2c0,9.7-12.3,17.5-27.4,17.5c-15.1,0-27.4-7.8-27.4-17.5c0-9.7,12.3-17.5,27.4-17.5
			C60.1,6.7,72.4,14.5,72.4,24.2z"/>
		<g>
			<path class="st2" d="M35.9,18.7c0,0-0.3,0.3-0.1,0.5c0.4,0.6,1.8,0.9,3.1,0.6c0.8-0.2,1.8-1,2.8-1.8c1.1-0.9,2.2-1.7,3.2-2.1
				c1.1-0.4,1.9-0.2,2.4-0.1c0.5,0.2,1.2,0.5,2.1,1.3c1.9,1.4,9.4,8,10.7,9.1c1-0.5,5.7-2.5,12-3.9c-0.5-3.4-2.6-6.5-5.7-9
				c-4.3,1.8-9.6,2.8-14.8,0.2c0,0-2.8-1.3-5.6-1.3c-4.1,0.1-5.9,1.9-7.8,3.8L35.9,18.7z"/>
			<path class="st2" d="M59.9,26.9c-0.1-0.1-8.9-7.7-10.8-9.2c-1.1-0.9-1.8-1.1-2.5-1.2c-0.3,0-0.8,0-1.2,0.1
				c-0.9,0.3-2.1,1.1-3.2,1.9c-1.1,0.9-2.2,1.7-3.1,1.9c-1.2,0.3-2.8-0.1-3.4-0.5c-0.3-0.2-0.5-0.4-0.6-0.6
				c-0.3-0.6,0.2-1.1,0.3-1.1l2.4-2.6c0.3-0.3,0.6-0.6,0.9-0.8c-0.8,0.1-1.5,0.3-2.2,0.5c-0.9,0.2-1.7,0.5-2.6,0.5
				c-0.4,0-2.3-0.3-2.6-0.4c-2.2-0.6-4.1-1.2-7-2.5c-3.4,2.6-5.7,5.8-6.4,9.3c0.5,0.1,1.3,0.4,1.6,0.4c7.8,1.7,10.2,3.5,10.6,3.9
				c0.5-0.5,1.2-0.9,1.9-0.9c0.9,0,1.6,0.4,2.1,1.1c0.4-0.4,1.1-0.7,1.9-0.7c0.4,0,0.7,0.1,1.1,0.2c0.9,0.3,1.3,0.9,1.6,1.4
				c0.3-0.1,0.7-0.2,1.1-0.2c0.4,0,0.9,0.1,1.3,0.3c1.4,0.6,1.7,2,1.5,3.1c0.1,0,0.2,0,0.3,0c1.7,0,3.1,1.4,3.1,3.1
				c0,0.5-0.1,1-0.4,1.5c0.5,0.3,1.6,0.8,2.7,0.7c0.8-0.1,1.1-0.4,1.3-0.5c0.1-0.1,0.2-0.2,0.1-0.3l-2.2-2.4c0,0-0.4-0.3-0.2-0.5
				c0.1-0.1,0.3,0.1,0.5,0.2c1.1,0.9,2.5,2.3,2.5,2.3c0,0,0.1,0.2,0.6,0.3c0.4,0.1,1.2,0,1.7-0.4c0.1-0.1,0.3-0.2,0.4-0.4
				c0,0,0,0,0,0c0.6-0.7-0.1-1.4-0.1-1.4l-2.6-2.9c0,0-0.4-0.3-0.2-0.5c0.1-0.1,0.3,0.1,0.5,0.2c0.8,0.7,2,1.8,3.1,2.9
				c0.2,0.2,1.2,0.8,2.5-0.1c0.8-0.5,0.9-1.1,0.9-1.6c-0.1-0.6-0.5-1.1-0.5-1.1l-3.5-3.5c0,0-0.4-0.3-0.2-0.5
				c0.1-0.1,0.3,0.1,0.5,0.2c1.1,0.9,4.1,3.7,4.1,3.7c0,0,1.1,0.8,2.4,0c0.5-0.3,0.8-0.7,0.8-1.3C60.5,27.5,59.9,26.9,59.9,26.9z"/>
			<path class="st2" d="M42.9,31.4c-0.5,0-1.1,0.3-1.2,0.3c0,0,0-0.2,0.1-0.4c0.1-0.1,0.8-2.3-1-3c-1.3-0.6-2.1,0.1-2.4,0.4
				c-0.1,0.1-0.1,0.1-0.1,0c0-0.4-0.2-1.4-1.4-1.8c-1.6-0.5-2.7,0.6-3,1.1c-0.1-0.9-0.9-1.7-1.9-1.7c-1.1,0-1.9,0.9-1.9,1.9
				c0,1.1,0.9,1.9,1.9,1.9c0.5,0,1-0.2,1.3-0.5c0,0,0,0,0,0.1c-0.1,0.5-0.2,2.2,1.6,2.9c0.7,0.3,1.3,0.1,1.8-0.3
				c0.2-0.1,0.2-0.1,0.2,0.1c-0.1,0.4,0,1.4,1.3,1.9c1,0.4,1.6,0,2-0.4c0.2-0.2,0.2-0.1,0.2,0.1c0,1.3,1.1,2.3,2.4,2.3
				c1.3,0,2.4-1.1,2.4-2.4C45.3,32.5,44.2,31.4,42.9,31.4z"/>
		</g>
		<path class="st0" d="M60.2,26c-2.7-2.4-8.9-7.8-10.6-9c-1-0.7-1.6-1.1-2.2-1.3c-0.3-0.1-0.6-0.2-1.1-0.2c-0.4,0-0.9,0.1-1.4,0.2
			c-1.1,0.3-2.2,1.2-3.2,2l-0.1,0c-1,0.8-2,1.6-2.8,1.8c-0.3,0.1-0.7,0.1-1,0.1c-0.9,0-1.6-0.2-1.9-0.6c0-0.1,0-0.2,0.1-0.3l0,0
			l2.4-2.6c1.9-1.9,3.6-3.6,7.7-3.7c0.1,0,0.1,0,0.2,0c2.5,0,5,1.1,5.3,1.3c2.4,1.2,4.8,1.7,7.2,1.7c2.6,0,5.2-0.6,8-1.9
			c-0.3-0.3-0.6-0.5-1-0.8c-2.4,1.1-4.8,1.6-7,1.6c-2.3,0-4.6-0.6-6.8-1.6c-0.1-0.1-2.9-1.4-5.8-1.4c-0.1,0-0.2,0-0.2,0
			c-3.4,0.1-5.3,1.3-6.6,2.3c-1.3,0-2.3,0.3-3.3,0.6c-0.9,0.2-1.6,0.4-2.3,0.4c-0.3,0-0.8,0-0.9,0c-0.8,0-5-1.1-8.3-2.3
			c-0.3,0.2-0.7,0.5-1,0.7c3.5,1.4,7.7,2.5,9,2.6c0.4,0,0.8,0.1,1.2,0.1c0.9,0,1.8-0.2,2.6-0.5c0.5-0.1,1.1-0.3,1.6-0.4
			c-0.2,0.2-0.3,0.3-0.5,0.5l-2.4,2.6c-0.2,0.2-0.6,0.7-0.3,1.3c0.1,0.3,0.3,0.5,0.6,0.7c0.6,0.4,1.6,0.6,2.6,0.6c0.4,0,0.7,0,1-0.1
			c1-0.2,2.1-1.1,3.2-2c0.9-0.7,2.2-1.6,3.1-1.9c0.3-0.1,0.6-0.1,0.9-0.1c0.1,0,0.2,0,0.2,0c0.6,0.1,1.3,0.3,2.4,1.1
			c2,1.5,10.7,9.2,10.8,9.2c0,0,0.6,0.5,0.5,1.3c0,0.4-0.3,0.8-0.7,1.1c-0.4,0.2-0.8,0.4-1.2,0.4c-0.6,0-1-0.3-1-0.3
			c0,0-3-2.8-4.1-3.7c-0.2-0.1-0.3-0.3-0.5-0.3c-0.1,0-0.2,0-0.2,0.1c-0.2,0.2,0,0.5,0.3,0.7l3.5,3.5c0,0,0.4,0.4,0.5,1
			c0,0.6-0.3,1.1-0.8,1.5c-0.4,0.3-0.8,0.4-1.2,0.4c-0.5,0-0.9-0.2-1-0.3l-0.5-0.5c-0.9-0.9-1.9-1.8-2.6-2.4
			c-0.2-0.1-0.4-0.3-0.5-0.3c-0.1,0-0.2,0-0.2,0.1c-0.1,0.1-0.1,0.2,0.1,0.5c0.1,0.1,0.2,0.2,0.2,0.2l2.6,2.9c0,0,0.5,0.6,0.1,1.2
			l-0.1,0.1c-0.1,0.1-0.2,0.2-0.2,0.2c-0.4,0.4-1,0.4-1.3,0.4c-0.1,0-0.2,0-0.3,0c-0.3,0-0.4-0.1-0.5-0.2l0,0
			c-0.1-0.1-1.4-1.5-2.5-2.4c-0.1-0.1-0.3-0.3-0.5-0.3c-0.1,0-0.2,0-0.2,0.1c-0.2,0.2,0.1,0.6,0.2,0.7l2.2,2.4c0,0,0,0.1-0.1,0.1
			c-0.1,0.1-0.3,0.4-1.1,0.5c-0.1,0-0.2,0-0.3,0c-0.8,0-1.7-0.4-2.1-0.6c0.2-0.4,0.3-0.9,0.3-1.4c0-1.8-1.5-3.3-3.3-3.3
			c0,0-0.1,0-0.1,0c0.1-0.8-0.1-2.4-1.7-3.1c-0.5-0.2-0.9-0.3-1.4-0.3c-0.3,0-0.7,0.1-1,0.2c-0.3-0.6-0.9-1.1-1.6-1.4
			c-0.4-0.1-0.8-0.2-1.2-0.2c-0.7,0-1.3,0.2-1.8,0.6c-0.5-0.6-1.3-1-2.1-1c-0.7,0-1.4,0.3-1.9,0.8c-0.7-0.5-3.4-2.2-10.6-3.9
			c-0.3-0.1-1.2-0.3-1.6-0.5c-0.1,0.4-0.1,0.8-0.2,1.2c0,0,1.3,0.3,1.6,0.4c7.4,1.6,9.8,3.3,10.2,3.7c-0.1,0.3-0.2,0.7-0.2,1.1
			c0,1.5,1.2,2.8,2.8,2.8c0.2,0,0.3,0,0.5,0c0.2,1.1,1,2,2.1,2.4c0.3,0.1,0.7,0.2,1,0.2c0.2,0,0.4,0,0.6-0.1
			c0.2,0.5,0.7,1.2,1.7,1.6c0.4,0.1,0.7,0.2,1.1,0.2c0.3,0,0.6-0.1,0.8-0.2c0.5,1.2,1.7,2,3,2c0.9,0,1.7-0.4,2.3-1
			c0.5,0.3,1.6,0.8,2.8,0.8c0.1,0,0.3,0,0.4,0c1.1-0.1,1.6-0.6,1.9-0.9c0-0.1,0.1-0.1,0.1-0.2c0.3,0.1,0.6,0.1,0.9,0.1
			c0.6,0,1.2-0.2,1.8-0.6c0.6-0.4,1-1,1.1-1.5c0,0,0,0,0,0c0.2,0,0.4,0.1,0.6,0.1c0.6,0,1.2-0.2,1.8-0.6c1.1-0.7,1.3-1.7,1.3-2.4
			c0.2,0,0.4,0.1,0.6,0.1c0.6,0,1.2-0.2,1.7-0.5c0.7-0.4,1.1-1.1,1.2-1.9c0-0.5-0.1-1.1-0.4-1.6c1.9-0.8,6.3-2.4,11.4-3.6
			c0-0.4-0.1-0.8-0.2-1.2C66,23.5,61.4,25.5,60.2,26z M42.9,36c-1.2,0-2.2-0.9-2.2-2.1c0-0.1,0-0.4-0.2-0.4c-0.1,0-0.2,0.1-0.3,0.1
			c-0.3,0.2-0.6,0.5-1.1,0.5c-0.2,0-0.5-0.1-0.7-0.2c-1.3-0.5-1.3-1.4-1.2-1.7c0-0.1,0-0.2,0-0.3L37,31.9h-0.1c-0.1,0-0.1,0-0.2,0.1
			c-0.4,0.3-0.7,0.4-1.1,0.4c-0.2,0-0.4,0-0.6-0.1c-1.7-0.7-1.5-2.2-1.5-2.7c0-0.1,0-0.2-0.1-0.2l-0.1-0.1l-0.1,0.1
			c-0.3,0.3-0.8,0.5-1.2,0.5c-1,0-1.7-0.8-1.7-1.7c0-1,0.8-1.7,1.7-1.7c0.9,0,1.6,0.7,1.7,1.5l0.1,0.5l0.3-0.4c0,0,0.7-1.1,2-1.1
			c0.2,0,0.5,0,0.8,0.1c1,0.3,1.2,1.2,1.2,1.6c0,0.2,0.2,0.2,0.2,0.2c0.1,0,0.2-0.1,0.2-0.1c0.2-0.2,0.6-0.5,1.3-0.5
			c0.3,0,0.6,0.1,1,0.2c1.6,0.7,0.9,2.8,0.9,2.8c-0.1,0.3-0.1,0.5,0,0.6l0.1,0h0c0.1,0,0.2,0,0.3-0.1c0.2-0.1,0.6-0.2,0.9-0.2h0
			c1.2,0,2.2,1,2.2,2.2C45.1,35,44.1,36,42.9,36z"/>
	</g>
	<g>
		<path class="st0" d="M88.3,50.7c-1-1.3-2.6-1.9-4.7-1.9c-2.1,0-3.7,0.6-4.7,1.9c-1,1.3-1.5,2.8-1.5,4.6c0,1.8,0.5,3.3,1.5,4.6
			c1,1.3,2.6,1.9,4.7,1.9c2.1,0,3.7-0.6,4.7-1.9c1-1.3,1.5-2.8,1.5-4.6C89.9,53.5,89.4,52,88.3,50.7z M85.8,58.1
			c-0.5,0.7-1.2,1-2.1,1c-0.9,0-1.6-0.3-2.1-1c-0.5-0.7-0.8-1.6-0.8-2.8c0-1.2,0.3-2.2,0.8-2.8c0.5-0.7,1.2-1,2.1-1
			c0.9,0,1.6,0.3,2.1,1c0.5,0.7,0.7,1.6,0.7,2.8C86.5,56.5,86.3,57.4,85.8,58.1z"/>
		<path class="st0" d="M62.1,49.6c-1-0.5-2.2-0.8-3.6-0.8c-2.1,0-3.5,0.5-4.4,1.6c-0.5,0.7-0.8,1.6-0.9,2.6h3.1
			c0.1-0.5,0.2-0.8,0.5-1.1c0.3-0.4,0.9-0.6,1.6-0.6c0.7,0,1.2,0.1,1.6,0.3c0.4,0.2,0.5,0.5,0.5,1c0,0.4-0.2,0.7-0.7,0.9
			c-0.3,0.1-0.7,0.2-1.3,0.3L57.4,54c-1.2,0.2-2.2,0.4-2.8,0.8c-1.2,0.7-1.7,1.8-1.7,3.3c0,1.2,0.4,2.1,1.1,2.7
			c0.7,0.6,1.6,0.9,2.8,0.9c7,0.3,6.9-3.7,7-4.5v-4.6C63.7,51.1,63.1,50.1,62.1,49.6z M60.5,56.6c0,1.1-0.3,1.8-0.9,2.2
			c-0.6,0.4-1.2,0.6-1.9,0.6c-0.4,0-0.8-0.1-1.1-0.4c-0.3-0.2-0.5-0.6-0.5-1.2c0-0.6,0.3-1.1,0.8-1.4c0.3-0.2,0.8-0.3,1.5-0.4
			l0.7-0.1c0.4-0.1,0.6-0.1,0.9-0.2c0.2-0.1,0.4-0.2,0.6-0.3V56.6z"/>
		<path class="st0" d="M46.2,51.5c0.8,0,1.4,0.2,1.8,0.7c0.3,0.4,0.4,0.8,0.5,1.2h3.4c-0.2-1.7-0.8-2.9-1.8-3.6c-1-0.7-2.3-1-4-1
			c-1.9,0-3.4,0.6-4.5,1.7c-1.1,1.2-1.6,2.8-1.6,4.9c0,1.8,0.5,3.4,1.5,4.5c1,1.2,2.5,1.7,4.6,1.7c2.1,0,3.6-0.7,4.7-2.1
			c0.7-0.9,1-1.8,1.1-2.7h-3.4c-0.1,0.6-0.3,1.2-0.6,1.6c-0.3,0.4-0.9,0.6-1.7,0.6c-1.1,0-1.9-0.5-2.3-1.5c-0.2-0.5-0.3-1.3-0.3-2.1
			c0-0.9,0.1-1.7,0.3-2.3C44.3,52.1,45.1,51.5,46.2,51.5z"/>
		<path class="st0" d="M39.1,48.8c-7.1,0-6.6,6.3-6.6,6.3v6.4h3.2v-6c0-1,0.1-1.7,0.4-2.2c0.4-0.8,1.3-1.3,2.6-1.3
			c0.1,0,0.2,0,0.4,0c0.2,0,0.3,0,0.5,0v-3.3c-0.1,0-0.2,0-0.3,0C39.2,48.8,39.2,48.8,39.1,48.8z"/>
		<path class="st0" d="M27.3,58.1c-0.1,0.2-0.3,0.4-0.4,0.5c-0.5,0.4-1.1,0.5-1.8,0.5c-0.7,0-1.2-0.1-1.7-0.4
			c-0.8-0.5-1.2-1.3-1.3-2.5H31c0-1.1,0-1.9-0.1-2.4c-0.1-1-0.5-1.8-1-2.5c-0.6-0.8-1.3-1.4-2.1-1.8C27,49,26,48.8,24.9,48.8
			c-1.8,0-3.2,0.6-4.4,1.7c-1.1,1.1-1.7,2.7-1.7,4.9c0,2.3,0.6,3.9,1.9,4.9c1.2,1,2.7,1.5,4.3,1.5c2,0,3.5-0.6,4.6-1.8
			c0.6-0.6,1-1.2,1.1-1.8H27.3z M23,52.2c0.5-0.5,1.1-0.7,1.9-0.7c0.8,0,1.4,0.2,1.9,0.7c0.5,0.4,0.8,1.1,0.8,1.9h-5.5
			C22.3,53.3,22.6,52.6,23,52.2z"/>
		<g>
			<path class="st0" d="M17.6,61.4h-2.9v-7.4c0-0.7-0.2-2.3-2.2-2.3c-1.3,0-2.2,0.9-2.2,2.3v7.4H7.4v-7.4c0-0.7-0.2-2.3-2.1-2.3
				C4,51.8,3,52.7,3,54.1v7.4H0.1v-7.3c0-3,2-5.3,5.1-5.3c1.6,0,2.8,0.7,3.6,1.7c0.9-1,2.2-1.7,3.6-1.7c3.2,0,5.1,2.2,5.1,5.3V61.4z
				"/>
		</g>
		<path class="st0" d="M76.5,45c0,0-3.2-0.3-3.2,2.2l0,3.4c-0.4-0.6-0.8-1-1.4-1.3c-0.6-0.3-1.2-0.5-2-0.5c-1.6,0-2.9,0.6-3.8,1.8
			c-1,1.2-1.4,2.9-1.4,5c0,1.8,0.5,3.3,1.5,4.4c1,1.1,2.9,1.7,4.6,1.7c5.9,0,5.8-5.1,5.8-5.1L76.5,45z M72.6,58.1
			c-0.5,0.7-1.2,1-2.1,1c-0.9,0-1.6-0.3-2-1c-0.4-0.7-0.7-1.7-0.7-2.8c0-1,0.2-1.9,0.7-2.6c0.4-0.7,1.1-1.1,2-1.1
			c0.6,0,1.1,0.2,1.6,0.6c0.8,0.6,1.1,1.8,1.1,3.3C73.4,56.5,73.1,57.4,72.6,58.1z"/>
	</g>
	<g>
		<g>
			<path class="st1" d="M23.5,81.8c0,0.4-0.2,0.8-0.5,1.1c-0.3,0.3-0.7,0.5-1.1,0.5h-1.6V72.2c0-2.2,0.7-3.5,1.9-4.4
				c0.8-0.6,2-1.2,4.2-1.2c1.5,0,3.2,0.6,4.2,1.7c1.1,1.3,1.5,2.7,1.5,4.6c0,2-0.5,3.5-1.4,4.7c-0.9,1.2-2.2,1.8-3.6,1.8
				c-0.8,0-1.5-0.1-2.1-0.4c-0.6-0.3-1.1-0.8-1.5-1.4V81.8z M28.9,73.1c0-1.2-0.2-2.1-0.7-2.8c-0.5-0.6-1.1-1-2-1
				c-0.8,0-1.5,0.3-2,1c-0.4,0.6-0.7,1.5-0.7,2.8c0,1.2,0.2,2.1,0.7,2.6c0.5,0.7,1.1,1,2,1c0.8,0,1.5-0.3,1.9-1
				C28.6,75.1,28.9,74.2,28.9,73.1"/>
			<path class="st1" d="M53.4,78.4v-0.8c-0.6,0.9-1.3,1.4-2.2,1.6c-0.9,0.2-1.9,0.1-2.8-0.2c-0.9-0.4-1.7-1.1-2.4-2.1
				c-0.7-1-1-2.3-1-4c0-1.9,0.4-3.5,1.3-4.7c0.9-1.2,2.3-1.7,4.2-1.8c1.9-0.1,3,0.4,4.1,1.2c1.2,0.9,1.9,2.3,1.9,4.5v6.6
				c0,2.1-1.4,5.9-6,5.6c-2.8-0.2-4.4-1.4-5.3-4h3.4c0.2,0.4,0.6,0.8,1.1,1c0.5,0.2,1,0.3,1.5,0.2c0.5-0.1,1-0.4,1.4-0.9
				C53.1,80.2,53.3,79.4,53.4,78.4 M48.1,73.1c0,2.1,0.6,3.3,1.9,3.6c1.2,0.2,2.1-0.1,2.7-0.9c0.3-0.3,0.5-0.9,0.6-1.6
				c0.1-0.7,0.1-1.4,0-2.2c-0.1-0.7-0.4-1.3-0.8-1.9c-0.4-0.6-1-0.8-1.8-0.8c-1,0-1.8,0.4-2.1,1.2C48.3,71.2,48.1,72.1,48.1,73.1"/>
			<path class="st1" d="M42.2,67.4c-1-0.5-2.2-0.8-3.6-0.8c-2.1,0-3.5,0.5-4.4,1.6c-0.5,0.7-0.8,1.6-0.9,2.6h3.1
				c0.1-0.5,0.2-0.8,0.5-1.1c0.3-0.4,0.9-0.6,1.6-0.6c0.7,0,1.2,0.1,1.6,0.3c0.4,0.2,0.5,0.5,0.5,1c0,0.4-0.2,0.7-0.7,0.9
				c-0.3,0.1-0.7,0.2-1.3,0.3l-1.1,0.1c-1.2,0.2-2.2,0.4-2.8,0.8c-1.2,0.7-1.8,1.8-1.8,3.3c0,1.2,0.4,2.1,1.1,2.7
				c0.7,0.6,1.6,0.9,2.8,0.9c7,0.3,6.9-3.7,7-4.5v-4.6C43.8,69,43.2,68,42.2,67.4 M40.6,74.4c0,1.1-0.3,1.8-0.9,2.2
				c-0.6,0.4-1.2,0.6-1.9,0.6c-0.4,0-0.8-0.1-1.1-0.4c-0.3-0.2-0.5-0.6-0.5-1.2c0-0.6,0.3-1.1,0.8-1.4c0.3-0.2,0.8-0.3,1.5-0.4
				l0.7-0.1c0.4-0.1,0.6-0.1,0.9-0.2c0.2-0.1,0.4-0.2,0.6-0.3V74.4z"/>
			<path class="st1" d="M68.6,68.5c-1-1.3-2.6-1.9-4.7-1.9c-2.1,0-3.6,0.6-4.7,1.9c-1,1.3-1.5,2.8-1.5,4.6c0,1.8,0.5,3.3,1.5,4.6
				c1,1.3,2.6,1.9,4.7,1.9c2.1,0,3.7-0.6,4.7-1.9c1-1.3,1.5-2.8,1.5-4.6C70.2,71.3,69.7,69.7,68.6,68.5 M66.1,75.8
				c-0.5,0.7-1.2,1-2.1,1c-0.9,0-1.6-0.3-2.1-1C61.3,75.2,61,74.2,61,73c0-1.2,0.2-2.2,0.8-2.8c0.5-0.7,1.2-1,2.1-1
				c0.9,0,1.6,0.3,2.1,1c0.5,0.7,0.7,1.6,0.7,2.8C66.8,74.2,66.6,75.2,66.1,75.8"/>
		</g>
	</g>
</g>
</svg>
